<svg xmlns="http://www.w3.org/2000/svg" viewBox="0 0 181.67 233.84"><defs><style>.cls-1{fill:#125066;}.cls-2{fill:#e06530;}.cls-3{fill:#fcb644;}.cls-4{fill:#f5842f;}.cls-5{fill:none;stroke:#231f20;stroke-linecap:round;stroke-linejoin:round;stroke-width:10px;}</style></defs><title>logo_isomaker</title><g id="v37"><polygon class="cls-1" points="5 191.2 5 89.67 25.36 89.67 56.52 107.67 25.63 125.51 25.58 125.52 25.58 191.2 5 191.2"/><polygon class="cls-1" points="176.67 89.67 176.67 191.2 155.99 191.18 155.99 125.53 155.99 125.52 156.04 125.49 124.89 107.5 155.77 89.65 155.78 89.67 176.67 89.67"/><polygon class="cls-1" points="156.04 125.49 155.99 125.52 155.99 125.53 90.85 163.18 90.82 163.2 25.63 125.51 56.52 107.67 90.58 127.34 124.89 107.5 156.04 125.49"/><polygon class="cls-2" points="155.99 125.53 155.99 191.18 90.85 228.81 90.82 228.84 90.82 163.2 90.85 163.18 155.99 125.53"/><polygon class="cls-2" points="155.78 42.65 155.77 89.65 124.89 107.5 90.58 127.34 90.59 80.33 155.69 42.6 155.7 42.6 155.78 42.65"/><polygon class="cls-3" points="90.59 5 155.69 42.6 90.59 80.33 25.37 42.69 25.37 42.67 90.56 5.02 90.59 5"/><polygon class="cls-4" points="90.82 163.2 90.82 228.84 25.58 191.2 25.58 125.52 25.63 125.51 90.82 163.2"/><polygon class="cls-4" points="90.59 80.33 90.58 127.34 56.52 107.67 25.36 89.67 25.37 42.69 90.59 80.33"/><line class="cls-5" x1="155.7" y1="42.6" x2="155.78" y2="42.65"/><polyline class="cls-5" points="25.37 42.67 90.56 5.02 90.59 5 155.69 42.6"/><polyline class="cls-5" points="25.37 42.67 25.37 42.69 25.36 89.67 56.52 107.67 90.58 127.34 124.89 107.5 155.77 89.65 155.78 42.65"/><polyline class="cls-5" points="155.99 125.53 90.85 163.18 90.82 163.2 25.63 125.51 56.52 107.67"/><polyline class="cls-5" points="124.89 107.5 156.04 125.49 155.99 125.52"/><polyline class="cls-5" points="25.58 191.2 90.82 228.84 90.85 228.81 155.99 191.18"/><polyline class="cls-5" points="155.99 125.52 155.99 125.53 155.99 191.18 176.67 191.2"/><polyline class="cls-5" points="25.36 89.67 5 89.67 5 191.2 25.58 191.2 25.58 125.52"/><polyline class="cls-5" points="176.67 191.2 176.67 89.67 155.78 89.67"/></g></svg>